<svg xmlns="http://www.w3.org/2000/svg" xmlns:xlink="http://www.w3.org/1999/xlink" version="1.1" x="0px" y="0px" viewBox="0 0 100 125" enable-background="new 0 0 100 100" xml:space="preserve"><g><path d="M6.893,6.75v87.5h87V6.75H6.893z M91.393,9.25v6.583h-82V9.25H91.393z M91.393,18.333v63.333h-82V18.333H91.393z    M9.393,91.75v-7.583h82v7.583H9.393z"/><rect x="14.976" y="11.5" width="10" height="2.5"/><rect x="82.81" y="11.5" width="3.167" height="2.5"/><rect x="76.81" y="11.5" width="3.167" height="2.5"/><rect x="70.81" y="11.5" width="3.167" height="2.5"/><rect x="34.142" y="86.5" width="29.667" height="2.5"/><rect x="73.977" y="86.5" width="12" height="2.5"/><rect x="14.809" y="86.5" width="12" height="2.5"/><path d="M83.875,32.75v-10l-57.82,0l-9.327,5.107l9.339,4.893H83.875z M27.625,25.25l49.333,0v5H27.625V25.25z M81.375,30.25   h-1.917v-5h1.917V30.25z M25.125,26.11v3.325l-3.103-1.625L25.125,26.11z"/><path d="M82.49,37.777l-49.346-1.71c-1.631,0-2.959,1.328-2.959,2.959v4.418c0,1.632,1.328,2.96,2.959,2.96h0.021l49.281-1.71   c1.632,0,2.96-1.328,2.96-2.96v-0.998c0-1.632-1.327-2.959-2.915-2.959C82.491,37.777,82.491,37.777,82.49,37.777z M82.907,40.736   v0.998c0,0.253-0.206,0.46-0.503,0.461L33.13,43.905c-0.247-0.008-0.444-0.211-0.444-0.46v-4.418c0-0.253,0.206-0.459,0.416-0.46   l49.346,1.71C82.701,40.276,82.907,40.483,82.907,40.736z"/><path d="M24.92,46.868L24.92,46.868c1.335,0,2.439-0.489,3.194-1.415c0.779-0.955,1.162-2.308,1.171-4.135   c0.049-0.525,0.186-2.922-1.214-4.491c-0.754-0.845-1.82-1.292-3.083-1.292c-2.381,0-5.563,1.545-9.728,4.724l-1.258,0.96   l1.226,1.001C15.811,42.697,21.026,46.868,24.92,46.868z M24.989,38.036c0.724,0,1.039,0.258,1.213,0.452   c0.636,0.708,0.64,2.171,0.592,2.624l-0.008,0.143c0,1.549-0.331,2.28-0.608,2.62c-0.173,0.212-0.492,0.495-1.256,0.495   c0,0,0,0,0,0c-1.979,0-4.937-1.778-6.811-3.104C21.821,38.625,23.886,38.036,24.989,38.036z"/><polygon points="41.457,53.914 30.142,64.451 41.457,74.988 43.161,73.158 33.811,64.451 43.161,55.744  "/><polygon points="57.626,55.744 66.976,64.451 57.626,73.158 59.329,74.988 70.644,64.451 59.329,53.914  "/><rect x="49.142" y="53.281" transform="matrix(-0.9245 -0.3812 0.3812 -0.9245 72.6246 142.1657)" width="2.5" height="21.218"/><rect x="13.667" y="51.083" width="13.142" height="2.5"/><rect x="13.667" y="56.083" width="13.142" height="2.5"/><rect x="13.667" y="61.083" width="13.142" height="2.5"/><rect x="13.667" y="66.083" width="13.142" height="2.5"/><rect x="13.667" y="71.083" width="13.142" height="2.5"/><rect x="13.667" y="76.083" width="13.142" height="2.5"/><rect x="73.666" y="51.083" width="13.143" height="2.5"/><rect x="73.666" y="56.083" width="13.143" height="2.5"/><rect x="73.666" y="61.083" width="13.143" height="2.5"/><rect x="73.666" y="66.083" width="13.143" height="2.5"/><rect x="73.666" y="71.083" width="13.143" height="2.5"/><rect x="73.666" y="76.083" width="13.143" height="2.5"/></g></svg>
